<svg width="40" height="40" viewBox="0 0 40 40" fill="none" xmlns="http://www.w3.org/2000/svg">
<path d="M23.9 39.85C23.5333 40.0167 23.1417 40.0333 22.725 39.9C22.3083 39.7667 22.0167 39.5167 21.85 39.15L18.4 32.25C18.2333 31.8833 18.2083 31.4917 18.325 31.075C18.4417 30.6583 18.6833 30.3667 19.05 30.2C19.4167 30.0333 19.8083 30.0167 20.225 30.15C20.6417 30.2833 20.9333 30.5333 21.1 30.9L24.55 37.8C24.7167 38.1667 24.7417 38.5583 24.625 38.975C24.5083 39.3917 24.2667 39.6833 23.9 39.85ZM35.9 39.8C35.5333 39.9667 35.1417 39.9833 34.725 39.85C34.3083 39.7167 34.0167 39.4667 33.85 39.1L30.4 32.2C30.2333 31.8333 30.2083 31.4417 30.325 31.025C30.4417 30.6083 30.6833 30.3167 31.05 30.15C31.4167 29.9833 31.8083 29.9667 32.225 30.1C32.6417 30.2333 32.9333 30.4833 33.1 30.85L36.55 37.75C36.7167 38.1167 36.7417 38.5083 36.625 38.925C36.5083 39.3417 36.2667 39.6333 35.9 39.8ZM11.9 39.8C11.5333 39.9667 11.1417 39.9917 10.725 39.875C10.3083 39.7583 10.0167 39.5167 9.85 39.15L6.4 32.25C6.23333 31.8833 6.21667 31.4917 6.35 31.075C6.48333 30.6583 6.73333 30.3667 7.1 30.2C7.46667 30.0333 7.85833 30.0083 8.275 30.125C8.69167 30.2417 8.98333 30.4833 9.15 30.85L12.6 37.8C12.7667 38.1667 12.7833 38.55 12.65 38.95C12.5167 39.35 12.2667 39.6333 11.9 39.8ZM10.5 27C7.6 27 5.125 25.975 3.075 23.925C1.025 21.875 0 19.4 0 16.5C0 13.8667 0.941666 11.5167 2.825 9.45C4.70833 7.38333 7.05 6.25 9.85 6.05C10.9167 4.18333 12.325 2.70833 14.075 1.625C15.825 0.541667 17.8 0 20 0C23.0333 0 25.575 0.958333 27.625 2.875C29.675 4.79167 30.9333 7.16667 31.4 10C34.0333 10.1333 36.125 11.025 37.675 12.675C39.225 14.325 40 16.2667 40 18.5C40 20.8333 39.175 22.8333 37.525 24.5C35.875 26.1667 33.8667 27 31.5 27H10.5ZM10.5 24H31.5C33.0333 24 34.3333 23.4583 35.4 22.375C36.4667 21.2917 37 20 37 18.5C37 16.9667 36.4667 15.6667 35.4 14.6C34.3333 13.5333 33.0333 13 31.5 13H28.5V11.5C28.5 9.13333 27.675 7.125 26.025 5.475C24.375 3.825 22.3667 3 20 3C18.3 3 16.7417 3.45833 15.325 4.375C13.9083 5.29167 12.8667 6.53333 12.2 8.1L11.8 9H10.4C8.33333 9.06667 6.58333 9.825 5.15 11.275C3.71667 12.725 3 14.4667 3 16.5C3 18.5667 3.73333 20.3333 5.2 21.8C6.66667 23.2667 8.43333 24 10.5 24Z" fill="black"/>
</svg>
