<svg width="48" height="48" viewBox="0 0 48 48" fill="none" xmlns="http://www.w3.org/2000/svg">
<g clip-path="url(#clip0_102_30)">
<path d="M19.968 10.12C20.7793 8.57484 21.8934 7.20886 23.244 6.1035C24.5945 4.99813 26.1538 4.17601 27.8288 3.68615C29.5039 3.19629 31.2604 3.04872 32.9937 3.25224C34.727 3.45575 36.4016 4.00619 37.9177 4.87072C39.4337 5.73526 40.7601 6.8962 41.8179 8.28433C42.8756 9.67246 43.6431 11.2594 44.0744 12.9504C44.5058 14.6415 44.5922 16.4021 44.3286 18.1273C44.065 19.8525 43.4567 21.5069 42.54 22.992C44.1442 24.5027 45.2577 26.4605 45.7362 28.6115C46.2146 30.7625 46.0361 33.0076 45.2235 35.056C44.411 37.1043 43.002 38.8614 41.1791 40.0995C39.3563 41.3376 37.2036 41.9997 35 42L18 41.998C15.8168 41.9963 13.6571 41.5479 11.6537 40.6803C9.65033 39.8128 7.84571 38.5444 6.35089 36.9532C4.85608 35.3621 3.70271 33.4818 2.96176 31.4283C2.22082 29.3747 1.90797 27.1912 2.04249 25.0122C2.177 22.8332 2.75602 20.7047 3.74392 18.7579C4.73182 16.811 6.1077 15.0869 7.78686 13.6917C9.46602 12.2965 11.413 11.2597 13.5078 10.6451C15.6027 10.0305 17.8012 9.85112 19.968 10.118V10.12ZM24.11 11.208C26.1077 12.0361 27.9174 13.2592 29.4307 14.8041C30.9439 16.3489 32.1294 18.1836 32.916 20.198C35.0116 19.7963 37.1788 20.0096 39.156 20.812C40.0831 18.8335 40.2588 16.5853 39.6504 14.4868C39.0419 12.3883 37.6909 10.5828 35.8492 9.40711C34.0076 8.23141 31.8011 7.76582 29.6414 8.09718C27.4818 8.42855 25.5164 9.53424 24.112 11.208H24.11ZM35 38C36.154 37.9998 37.2902 37.7143 38.3072 37.1689C39.3243 36.6235 40.1907 35.835 40.8294 34.8738C41.468 33.9126 41.8591 32.8083 41.9678 31.6594C42.0765 30.5104 41.8995 29.3524 41.4524 28.2884C41.0054 27.2245 40.3022 26.2875 39.4055 25.561C38.5088 24.8345 37.4464 24.341 36.3128 24.1244C35.1793 23.9078 34.0097 23.9748 32.9083 24.3195C31.8069 24.6642 30.8078 25.2758 30 26.1V26C30 23.6266 29.2962 21.3065 27.9776 19.3332C26.659 17.3598 24.7849 15.8217 22.5922 14.9134C20.3995 14.0052 17.9867 13.7676 15.6589 14.2306C13.3311 14.6936 11.1929 15.8365 9.51468 17.5147C7.83645 19.1929 6.69356 21.3311 6.23054 23.6589C5.76752 25.9867 6.00516 28.3995 6.91341 30.5922C7.82166 32.7849 9.35973 34.6591 11.3331 35.9776C13.3065 37.2962 15.6266 38 18 38H35Z" fill="white"/>
</g>
<defs>
<clipPath id="clip0_102_30">
<rect width="48" height="48" fill="white"/>
</clipPath>
</defs>
</svg>
