<svg width="24" height="24" viewBox="0 0 24 24" fill="none" xmlns="http://www.w3.org/2000/svg">
<path d="M11.625 20C10.725 20 10.0125 19.7667 9.4875 19.3C8.9625 18.8333 8.7 18.125 8.7 17.175H10.4C10.4 17.6083 10.4958 17.9375 10.6875 18.1625C10.8792 18.3875 11.1917 18.5 11.625 18.5C12.075 18.5 12.3958 18.4 12.5875 18.2C12.7792 18 12.875 17.6583 12.875 17.175C12.875 16.6917 12.7792 16.3375 12.5875 16.1125C12.3958 15.8875 12.075 15.775 11.625 15.775H2V14.275H11.625C12.525 14.275 13.2083 14.5083 13.675 14.975C14.1417 15.4417 14.375 16.175 14.375 17.175C14.375 18.125 14.1417 18.8333 13.675 19.3C13.2083 19.7667 12.525 20 11.625 20ZM2 9.8V8.3H15.7C16.3167 8.3 16.7667 8.15417 17.05 7.8625C17.3333 7.57083 17.475 7.08333 17.475 6.4C17.475 5.71667 17.3333 5.22917 17.05 4.9375C16.7667 4.64583 16.3167 4.5 15.7 4.5C15.0667 4.5 14.6083 4.67083 14.325 5.0125C14.0417 5.35417 13.9 5.78333 13.9 6.3H12.4C12.4 5.33333 12.6917 4.54167 13.275 3.925C13.8583 3.30833 14.6667 3 15.7 3C16.7167 3 17.5167 3.29583 18.1 3.8875C18.6833 4.47917 18.975 5.31667 18.975 6.4C18.975 7.48333 18.6833 8.32083 18.1 8.9125C17.5167 9.50417 16.7167 9.8 15.7 9.8H2ZM18.8 18.05V16.55C19.3833 16.55 19.8125 16.3875 20.0875 16.0625C20.3625 15.7375 20.5 15.2667 20.5 14.65C20.5 14.0167 20.3458 13.5583 20.0375 13.275C19.7292 12.9917 19.2833 12.85 18.7 12.85H2V11.35H18.7C19.7333 11.35 20.5417 11.6417 21.125 12.225C21.7083 12.8083 22 13.6167 22 14.65C22 15.7167 21.725 16.55 21.175 17.15C20.625 17.75 19.8333 18.05 18.8 18.05Z" fill="black"/>
</svg>
